<?xml version="1.0" encoding="UTF-8" standalone="no"?>
<svg
   xmlns:dc="http://purl.org/dc/elements/1.1/"
   xmlns:cc="http://creativecommons.org/ns#"
   xmlns:rdf="http://www.w3.org/1999/02/22-rdf-syntax-ns#"
   xmlns:svg="http://www.w3.org/2000/svg"
   xmlns="http://www.w3.org/2000/svg"
   xmlns:sodipodi="http://sodipodi.sourceforge.net/DTD/sodipodi-0.dtd"
   xmlns:inkscape="http://www.inkscape.org/namespaces/inkscape"
   width="88.56295"
   height="156.92757"
   viewBox="0 0 88.56295 156.92757"
   version="1.1"
   xml:space="preserve"
   style="clip-rule:evenodd;fill-rule:evenodd;stroke-miterlimit:10"
   id="svg3435"
   sodipodi:docname="preklady.svg"
   inkscape:version="0.92.4 (5da689c313, 2019-01-14)"><metadata
   id="metadata3439"><rdf:RDF><cc:Work
       rdf:about=""><dc:format>image/svg+xml</dc:format><dc:type
         rdf:resource="http://purl.org/dc/dcmitype/StillImage" /><dc:title></dc:title></cc:Work></rdf:RDF></metadata><sodipodi:namedview
   pagecolor="#ffffff"
   bordercolor="#666666"
   borderopacity="1"
   objecttolerance="10"
   gridtolerance="10"
   guidetolerance="10"
   inkscape:pageopacity="0"
   inkscape:pageshadow="2"
   inkscape:window-width="1920"
   inkscape:window-height="1017"
   id="namedview3437"
   showgrid="false"
   inkscape:zoom="0.75169913"
   inkscape:cx="-50.329743"
   inkscape:cy="122.78006"
   inkscape:window-x="1912"
   inkscape:window-y="-8"
   inkscape:window-maximized="1"
   inkscape:current-layer="svg3435"
   fit-margin-top="0"
   fit-margin-left="0"
   fit-margin-right="0"
   fit-margin-bottom="0" />
    <g
   id="g3050"
   transform="translate(2.05335,2.9180611)">
            <path
   inkscape:connector-curvature="0"
   id="path3048"
   style="fill:#c8e2ff;fill-rule:nonzero"
   d="m 0,139.066 v 0.004 l 5.22,3.014 0.893,-7.313 41.189,-23.791 c 1.474,-0.851 2.668,-2.92 2.668,-4.621 L 49.965,16.2 53.69,0.275 48.468,-2.741 c -0.002,0 -0.003,-10e-4 -0.004,-0.002 l -0.009,-0.004 -10e-4,10e-4 C 47.972,-3.018 47.31,-2.977 46.579,-2.555 L 1.855,23.267 c -1.474,0.851 -2.668,2.92 -2.668,4.621 l 0.006,109.442 c 0,0.864 0.31,1.464 0.807,1.736" />
        </g><g
   id="g3054"
   transform="translate(55.74395,38.661061)">
            <path
   inkscape:connector-curvature="0"
   id="path3052"
   style="fill:#a5cbfa;fill-rule:nonzero"
   d="m 0,-35.468 -5.223,-3.016 c -0.001,0 -0.002,-10e-4 -0.003,-0.002 l -0.009,-0.004 -0.002,0.001 c -0.482,-0.272 -1.143,-0.231 -1.874,0.191 l -44.724,25.822 c -0.737,0.426 -1.404,1.155 -1.887,1.992 l 23.863,13.777 26.134,-14.73 v -8.106 z" />
        </g><g
   id="g3058"
   transform="translate(52.62895,33.317061)">
            <path
   inkscape:connector-curvature="0"
   id="path3056"
   style="fill:#dceeff;fill-rule:nonzero"
   d="m 0,81.565 -42.302,24.432 c -0.986,0.564 -1.777,0.113 -1.777,-1.028 L -44.109,3.133 c 0,-1.13 0.801,-2.516 1.776,-3.081 l 10.845,-6.275 0.257,-0.144 c 0.986,-0.564 1.777,-0.102 1.777,1.028 v 0.708 c 0,0.504 0.154,0.873 0.421,1.089 0.031,0.02 0.061,0.041 0.102,0.061 v 0.011 c 0.319,0.184 0.771,0.153 1.264,-0.134 l 13.125,-7.579 c 0.985,-0.565 1.776,-1.941 1.776,-3.081 v -0.709 c 0,-1.129 0.802,-2.506 1.777,-3.081 l 10.968,-6.326 c 0.976,-0.565 1.777,-0.113 1.777,1.027 L 1.777,78.473 c 0,1.14 -0.791,2.516 -1.777,3.092 m 3.913,-109.95 c 0,-1.705 -1.191,-2.393 -2.66,-1.54 l -44.726,25.818 c -1.479,0.853 -2.67,2.916 -2.67,4.621 l 0.011,109.447 c 0,1.694 1.191,2.382 2.659,1.541 L 1.253,85.672 c 1.479,-0.852 2.67,-2.917 2.67,-4.621 z" />
        </g><g
   id="g3062"
   transform="translate(27.05195,21.810061)">
            <path
   inkscape:connector-curvature="0"
   id="path3060"
   style="fill:#031f60;fill-rule:nonzero"
   d="m 0,1.891 6.368,-3.678 c 0.546,-0.315 0.989,-0.172 0.989,0.322 0,0.493 -0.443,1.148 -0.989,1.463 L 0,3.677 C -0.546,3.993 -0.989,3.848 -0.989,3.355 -0.989,2.862 -0.546,2.206 0,1.891" />
        </g><g
   id="g3066"
   transform="matrix(0.499806,0.866137,0.866137,-0.499806,35.12495,19.033061)">
            <path
   inkscape:connector-curvature="0"
   id="path3064"
   style="fill:#031f60;fill-rule:nonzero"
   d="M 0.75,-0.433 C 1.164,-0.671 1.499,-0.477 1.5,0.001 1.499,0.479 1.163,1.06 0.75,1.298 0.335,1.537 0,1.344 0.001,0.866 0,0.387 0.336,-0.194 0.75,-0.433" />
        </g><g
   id="g3070"
   transform="translate(54.40495,36.461061)">
            <path
   inkscape:connector-curvature="0"
   id="path3068"
   style="fill:#031f60;fill-rule:nonzero"
   d="m 0,75.33 c 0,1.14 -0.791,2.516 -1.777,3.092 l -42.302,24.431 c -0.985,0.565 -1.776,0.114 -1.776,-1.027 v -0.39 L -45.886,-0.01 c 0,-1.13 0.801,-2.516 1.777,-3.081 l 10.844,-6.275 0.257,-0.144 c 0.986,-0.564 1.777,-0.102 1.777,1.027 v 0.709 c 0,1.14 0.801,1.602 1.787,1.027 l 13.125,-7.579 c 0.986,-0.565 1.777,-1.942 1.777,-3.081 v -0.709 c 0,-1.129 0.801,-2.506 1.776,-3.081 l 10.712,-6.182 0.257,-0.145 c 0.975,-0.564 1.776,-0.112 1.776,1.028 z" />
        </g><g
   id="g3074"
   transform="translate(52.60795,112.45106)">
            <path
   inkscape:connector-curvature="0"
   id="path3072"
   style="fill:#1e3779;fill-rule:nonzero"
   d="m 0,-103.514 -0.257,0.145 -2.118,1.221 V -1.692 L 1.533,0.564 C 1.697,0.156 1.797,-0.266 1.797,-0.66 L 1.776,-102.487 c 0,-1.139 -0.8,-1.591 -1.776,-1.027" />
        </g><g
   id="g3078"
   transform="translate(52.37195,36.461061)">
            <path
   inkscape:connector-curvature="0"
   id="path3076"
   style="fill:#2b3d89;fill-rule:nonzero"
   d="m 0,74.056 c 0,1.14 -0.791,2.516 -1.777,3.091 L -43.822,101.436 -43.853,-0.01 c 0,-1.13 0.802,-2.517 1.777,-3.081 l 10.845,-6.276 v 0.319 c 0,1.14 0.801,1.602 1.787,1.027 l 0.247,-0.144 v 0.39 c 0,1.141 0.801,1.602 1.786,1.027 l 13.125,-7.579 c 0.986,-0.564 1.777,-1.941 1.777,-3.081 v -0.709 c 0,-1.129 0.801,-2.506 1.777,-3.081 l 10.711,-6.182 z" />
        </g><g
   id="g3082"
   transform="translate(44.56195,56.861061)">
            <path
   inkscape:connector-curvature="0"
   id="path3080"
   style="fill:#344593;fill-rule:nonzero"
   d="M 0,21.237 C 4.909,2.709 7.1,-30.118 7.791,-42.76 l -0.001,-5.02 -10.712,6.182 c -0.975,0.575 -1.777,1.952 -1.777,3.081 v 0.709 c 0,1.14 -0.791,2.517 -1.777,3.081 l -13.125,7.579 c -0.985,0.575 -1.786,0.114 -1.786,-1.027 v -0.39 l -0.247,0.144 c -0.986,0.575 -1.787,0.113 -1.787,-1.028 v -0.318 l -10.845,6.275 c -0.975,0.565 -1.776,1.952 -1.776,3.082 l 0.027,89.427 C -35.436,68.648 -7.874,50.949 0,21.237" />
        </g><g
   id="g3086"
   transform="translate(23.59495,26.386061)">
            <path
   inkscape:connector-curvature="0"
   id="path3084"
   style="fill:#031f60;fill-rule:nonzero"
   d="M 0,3.389 -1.972,2.157 C -2.3,1.931 -2.455,1.54 -2.455,1.027 V 0.708 L -2.198,0.565 C -1.212,0 -0.421,0.462 -0.421,1.592 V 2.3 c 0,0.504 0.154,0.873 0.421,1.089" />
        </g><g
   style="opacity:0.2"
   id="g3092"
   transform="translate(-83.07405,-310.64293)">
            <g
   id="g3090"
   transform="translate(151.871,340.042)">
                <path
   inkscape:connector-curvature="0"
   id="path3088"
   style="fill:#e9fffb;fill-rule:nonzero"
   d="M 0,77.78 C 0.075,77.595 0.132,77.409 0.175,77.221 0.184,77.187 0.192,77.154 0.199,77.12 0.237,76.928 0.265,76.739 0.265,76.555 L 0.244,-25.271 c 0,-1.139 -0.801,-1.592 -1.777,-1.027 l -0.257,0.144 -2.118,1.222 v 10e-4 l -8.593,4.959 c -0.976,0.575 -1.777,1.952 -1.777,3.081 v 0.709 c 0,1.14 -0.79,2.517 -1.777,3.081 l -13.125,7.579 c -0.986,0.575 -1.786,0.114 -1.786,-1.027 v -0.39 -0.318 c 0,-1.13 -0.791,-1.592 -1.777,-1.027 L -33,-8.141 -43.845,-1.866 c -0.975,0.565 -1.777,1.952 -1.777,3.082 l 0.031,101.446 v 0.389 c 0,1.141 0.791,1.592 1.777,1.028 L -1.512,79.647 C -0.868,79.271 -0.312,78.551 0,77.78" />
            </g>
        </g><g
   id="g3096"
   transform="translate(68.79695,29.399061)">
            <path
   inkscape:connector-curvature="0"
   id="path3094"
   style="fill:none;fill-rule:nonzero;stroke:#e9fffb;stroke-width:1px"
   d="M 0,77.78 C 0.075,77.595 0.132,77.409 0.175,77.221 0.184,77.187 0.192,77.154 0.199,77.12 0.237,76.928 0.265,76.739 0.265,76.555 L 0.244,-25.271 c 0,-1.139 -0.801,-1.592 -1.777,-1.027 l -0.257,0.144 -2.118,1.222 v 10e-4 l -8.593,4.959 c -0.976,0.575 -1.777,1.952 -1.777,3.081 v 0.709 c 0,1.14 -0.79,2.517 -1.777,3.081 l -13.125,7.579 c -0.986,0.575 -1.786,0.114 -1.786,-1.027 v -0.39 -0.318 c 0,-1.13 -0.791,-1.592 -1.777,-1.027 L -33,-8.141 -43.845,-1.866 c -0.975,0.565 -1.777,1.952 -1.777,3.082 l 0.031,101.446 v 0.389 c 0,1.141 0.791,1.592 1.777,1.028 L -1.512,79.647 C -0.868,79.271 -0.312,78.551 0,77.78 Z" />
        </g><g
   style="opacity:0.8"
   id="g3102"
   transform="translate(-83.07405,-310.64293)">
            <g
   id="g3100"
   transform="translate(129.42,394.917)">
                <path
   inkscape:connector-curvature="0"
   id="path3098"
   style="fill:#57f7e0;fill-rule:nonzero"
   d="m 0,-51.642 v 75.729 c 0,1.701 1.195,2.39 2.668,1.54 L 39.049,4.622 c 1.473,-0.851 2.668,-2.92 2.668,-4.621 v -75.728 c 0,-1.701 -1.195,-2.392 -2.668,-1.54 L 2.668,-56.263 C 1.195,-55.413 0,-53.343 0,-51.642" />
            </g>
        </g><g
   id="g3106"
   transform="translate(46.34595,84.274061)">
            <path
   inkscape:connector-curvature="0"
   id="path3104"
   style="fill:none;fill-rule:nonzero;stroke:#e9fffb;stroke-width:1px;stroke-linecap:round"
   d="m 0,-51.642 v 75.729 c 0,1.701 1.195,2.39 2.668,1.54 L 39.049,4.622 c 1.473,-0.851 2.668,-2.92 2.668,-4.621 v -75.728 c 0,-1.701 -1.195,-2.392 -2.668,-1.54 L 2.668,-56.263 C 1.195,-55.413 0,-53.343 0,-51.642 Z" />
        </g><g
   style="opacity:0.8"
   id="g3112"
   transform="translate(-83.07405,-310.64293)">
            <g
   id="g3110"
   transform="translate(134.66,383.18)">
                <path
   inkscape:connector-curvature="0"
   id="path3108"
   style="fill:#0b3fa5;fill-rule:nonzero"
   d="m 0,5.878 14.552,-8.402 c 0.59,-0.34 1.067,-0.065 1.067,0.616 v 0.06 c 0,0.681 -0.477,1.509 -1.067,1.849 L 0,8.402 C -0.589,8.742 -1.067,8.467 -1.067,7.786 V 7.726 C -1.067,7.045 -0.589,6.218 0,5.878" />
            </g>
        </g><g
   style="opacity:0.8"
   id="g3118"
   transform="translate(-83.07405,-310.64293)">
            <g
   id="g3116"
   transform="translate(153.359,373.547)">
                <path
   inkscape:connector-curvature="0"
   id="path3114"
   style="fill:#0b3fa5;fill-rule:nonzero"
   d="m 0,4.716 12.54,-7.24 c 0.589,-0.341 1.067,-0.065 1.067,0.616 v 0.061 c 0,0.68 -0.478,1.507 -1.067,1.847 L 0,7.24 C -0.589,7.581 -1.067,7.305 -1.067,6.624 V 6.565 C -1.067,5.884 -0.589,5.057 0,4.716" />
            </g>
        </g><g
   style="opacity:0.8"
   id="g3128"
   transform="translate(-83.07405,-310.64293)">
            <g
   id="g3122"
   transform="translate(134.66,395.058)">
                <path
   inkscape:connector-curvature="0"
   id="path3120"
   style="fill:#0b3fa5;fill-rule:nonzero"
   d="m 0,5.876 14.552,-8.401 c 0.59,-0.34 1.067,-0.065 1.067,0.616 v 0.06 c 0,0.681 -0.477,1.509 -1.067,1.849 L 0,8.401 C -0.589,8.741 -1.067,8.466 -1.067,7.785 V 7.725 C -1.067,7.044 -0.589,6.217 0,5.876" />
            </g>
            <g
   id="g3126"
   transform="translate(153.359,385.424)">
                <path
   inkscape:connector-curvature="0"
   id="path3124"
   style="fill:#0b3fa5;fill-rule:nonzero"
   d="m 0,4.716 12.54,-7.241 c 0.589,-0.34 1.067,-0.065 1.067,0.616 v 0.061 c 0,0.68 -0.478,1.508 -1.067,1.848 L 0,7.24 C -0.589,7.581 -1.067,7.305 -1.067,6.624 V 6.565 C -1.067,5.884 -0.589,5.056 0,4.716" />
            </g>
        </g><g
   style="opacity:0.8"
   id="g3142"
   transform="translate(-83.07405,-310.64293)">
            <g
   id="g3132"
   transform="translate(134.66,392.971)">
                <path
   inkscape:connector-curvature="0"
   id="path3130"
   style="fill:#0b3fa5;fill-rule:nonzero"
   d="m 0,2.025 7.878,-4.549 c 0.589,-0.34 1.067,-0.064 1.067,0.616 v 0.061 c 0,0.681 -0.478,1.509 -1.067,1.849 L 0,4.549 c -0.589,0.34 -1.067,0.065 -1.067,-0.616 v -0.06 c 0,-0.68 0.478,-1.508 1.067,-1.848" />
            </g>
            <g
   id="g3136"
   transform="translate(146.074,387.05)">
                <path
   inkscape:connector-curvature="0"
   id="path3134"
   style="fill:#0b3fa5;fill-rule:nonzero"
   d="m 0,1.354 6.683,-3.88 c 0.588,-0.341 1.065,-0.066 1.065,0.614 v 0.061 C 7.748,-1.17 7.271,-0.342 6.683,0 L 0,3.879 C -0.588,4.221 -1.065,3.946 -1.065,3.265 V 3.206 c 0,-0.681 0.477,-1.51 1.065,-1.852" />
            </g>
            <g
   id="g3140"
   transform="translate(156.545,379.482)">
                <path
   inkscape:connector-curvature="0"
   id="path3138"
   style="fill:#0b3fa5;fill-rule:nonzero"
   d="m 0,2.85 9.353,-5.374 c 0.589,-0.339 1.068,-0.062 1.068,0.619 v 0.061 c 0,0.68 -0.479,1.506 -1.068,1.845 L 0,5.374 C -0.59,5.713 -1.069,5.437 -1.069,4.756 V 4.696 C -1.069,4.015 -0.59,3.189 0,2.85" />
            </g>
        </g><g
   style="opacity:0.8"
   id="g3156"
   transform="translate(-83.07405,-310.64293)">
            <g
   id="g3146"
   transform="translate(134.66,402.148)">
                <path
   inkscape:connector-curvature="0"
   id="path3144"
   style="fill:#0b3fa5;fill-rule:nonzero"
   d="m 0,4.79 12.692,-7.314 c 0.59,-0.34 1.068,-0.064 1.068,0.617 v 0.06 c 0,0.681 -0.478,1.508 -1.068,1.848 L 0,7.314 C -0.589,7.654 -1.068,7.378 -1.068,6.697 V 6.638 C -1.068,5.957 -0.589,5.13 0,4.79" />
            </g>
            <g
   id="g3150"
   transform="translate(150.89,396.227)">
                <path
   inkscape:connector-curvature="0"
   id="path3148"
   style="fill:#0b3fa5;fill-rule:nonzero"
   d="m 0,1.355 6.682,-3.88 c 0.589,-0.342 1.066,-0.066 1.066,0.614 v 0.061 c 0,0.681 -0.477,1.509 -1.066,1.851 L 0,3.88 C -0.589,4.222 -1.066,3.947 -1.066,3.267 v -0.06 c 0,-0.681 0.477,-1.51 1.066,-1.852" />
            </g>
            <g
   id="g3154"
   transform="translate(161.36,391.425)">
                <path
   inkscape:connector-curvature="0"
   id="path3152"
   style="fill:#0b3fa5;fill-rule:nonzero"
   d="m 0,0.085 4.538,-2.609 c 0.59,-0.339 1.068,-0.063 1.068,0.618 v 0.06 c 0,0.681 -0.479,1.507 -1.068,1.847 L 0,2.609 C -0.59,2.948 -1.068,2.672 -1.068,1.991 V 1.931 C -1.068,1.251 -0.59,0.424 0,0.085" />
            </g>
        </g><g
   style="opacity:0.8"
   id="g3162"
   transform="translate(-83.07405,-310.64293)">
            <g
   id="g3160"
   transform="matrix(0.866001,-0.500042,-0.500042,-0.866001,150.274,383.82)">
                <path
   inkscape:connector-curvature="0"
   id="path3158"
   style="fill:#0b3fa5;fill-rule:nonzero"
   d="M -10.688,10.672 H 23.015 L 39.868,39.858 6.107,39.86 Z" />
            </g>
        </g><g
   id="g3218"
   transform="matrix(-0.910292,-0.413966,-0.413966,0.910292,83.83595,80.000061)">
            <path
   inkscape:connector-curvature="0"
   id="path3216"
   style="fill:#f5fbfb;fill-rule:nonzero"
   d="m -2.649,-3.762 h 1.846 c 0.718,0.788 0.747,2.666 -0.267,4.142 L -3.274,0.295 Z" />
        </g><g
   style="opacity:0.15"
   id="g3234"
   transform="translate(-83.07405,-310.64293)">
            <g
   id="g3232"
   transform="translate(83.4258,438.459)">
                <path
   inkscape:connector-curvature="0"
   id="path3230"
   style="fill:#6b99d1;fill-rule:nonzero"
   d="M 0,25.516 50.324,-3.392 c 0.468,-0.271 1.228,-0.27 1.696,0.002 l 4.278,2.426 c 0.469,0.271 0.468,0.71 -0.001,0.981 L 5.966,28.909 c -0.469,0.27 -1.229,0.27 -1.697,0 L 0,26.496 c -0.469,-0.27 -0.469,-0.709 0,-0.98" />
            </g>
        </g>
    <defs
   id="defs3433">
        <linearGradient
   id="_Linear1"
   x1="0"
   y1="0"
   x2="1"
   y2="0"
   gradientUnits="userSpaceOnUse"
   gradientTransform="matrix(0.707107,0.707107,0.707107,-0.707107,0.143236,-0.345802)"><stop
     offset="0"
     style="stop-color:rgb(145,241,230);stop-opacity:1"
     id="stop3238" /><stop
     offset="1"
     style="stop-color:rgb(6,98,221);stop-opacity:1"
     id="stop3240" /></linearGradient>
        <linearGradient
   id="_Linear2"
   x1="0"
   y1="0"
   x2="1"
   y2="0"
   gradientUnits="userSpaceOnUse"
   gradientTransform="matrix(0.707107,0.707107,0.707107,-0.707107,0.143261,-0.345863)"><stop
     offset="0"
     style="stop-color:rgb(145,241,230);stop-opacity:1"
     id="stop3243" /><stop
     offset="1"
     style="stop-color:rgb(6,98,221);stop-opacity:1"
     id="stop3245" /></linearGradient>
        <linearGradient
   id="_Linear3"
   x1="0"
   y1="0"
   x2="1"
   y2="0"
   gradientUnits="userSpaceOnUse"
   gradientTransform="matrix(0.707107,0.707107,0.707107,-0.707107,0.143235,-0.3458)"><stop
     offset="0"
     style="stop-color:rgb(145,241,230);stop-opacity:1"
     id="stop3248" /><stop
     offset="1"
     style="stop-color:rgb(6,98,221);stop-opacity:1"
     id="stop3250" /></linearGradient>
        <linearGradient
   id="_Linear4"
   x1="0"
   y1="0"
   x2="1"
   y2="0"
   gradientUnits="userSpaceOnUse"
   gradientTransform="matrix(1,4.63219e-5,4.63219e-5,-1,0,3.4004e-5)"><stop
     offset="0"
     style="stop-color:rgb(200,226,255);stop-opacity:1"
     id="stop3253" /><stop
     offset="1"
     style="stop-color:rgb(107,153,209);stop-opacity:1"
     id="stop3255" /></linearGradient>
        <linearGradient
   id="_Linear5"
   x1="0"
   y1="0"
   x2="1"
   y2="0"
   gradientUnits="userSpaceOnUse"
   gradientTransform="matrix(1,0,0,-1,0,0.00298211)"><stop
     offset="0"
     style="stop-color:rgb(200,226,255);stop-opacity:1"
     id="stop3258" /><stop
     offset="1"
     style="stop-color:rgb(107,153,209);stop-opacity:1"
     id="stop3260" /></linearGradient>
        <linearGradient
   id="_Linear6"
   x1="0"
   y1="0"
   x2="1"
   y2="0"
   gradientUnits="userSpaceOnUse"
   gradientTransform="matrix(1,0,0,-1,0,2.0602e-5)"><stop
     offset="0"
     style="stop-color:rgb(200,226,255);stop-opacity:1"
     id="stop3263" /><stop
     offset="1"
     style="stop-color:rgb(107,153,209);stop-opacity:1"
     id="stop3265" /></linearGradient>
        <linearGradient
   id="_Linear7"
   x1="0"
   y1="0"
   x2="1"
   y2="0"
   gradientUnits="userSpaceOnUse"
   gradientTransform="matrix(1,-9.47427e-6,-9.47427e-6,-1,0,8.53705e-5)"><stop
     offset="0"
     style="stop-color:rgb(200,226,255);stop-opacity:1"
     id="stop3268" /><stop
     offset="1"
     style="stop-color:rgb(107,153,209);stop-opacity:1"
     id="stop3270" /></linearGradient>
        <linearGradient
   id="_Linear8"
   x1="0"
   y1="0"
   x2="1"
   y2="0"
   gradientUnits="userSpaceOnUse"
   gradientTransform="matrix(1,0,0,-1,0,0.0030107)"><stop
     offset="0"
     style="stop-color:rgb(200,226,255);stop-opacity:1"
     id="stop3273" /><stop
     offset="1"
     style="stop-color:rgb(107,153,209);stop-opacity:1"
     id="stop3275" /></linearGradient>
        <linearGradient
   id="_Linear9"
   x1="0"
   y1="0"
   x2="1"
   y2="0"
   gradientUnits="userSpaceOnUse"
   gradientTransform="matrix(1,0,0,-1,0,8.86716e-5)"><stop
     offset="0"
     style="stop-color:rgb(200,226,255);stop-opacity:1"
     id="stop3278" /><stop
     offset="1"
     style="stop-color:rgb(107,153,209);stop-opacity:1"
     id="stop3280" /></linearGradient>
        <linearGradient
   id="_Linear10"
   x1="0"
   y1="0"
   x2="1"
   y2="0"
   gradientUnits="userSpaceOnUse"
   gradientTransform="matrix(1,7.85412e-5,7.85412e-5,-1,0,-9.59752e-5)"><stop
     offset="0"
     style="stop-color:rgb(200,226,255);stop-opacity:1"
     id="stop3283" /><stop
     offset="1"
     style="stop-color:rgb(107,153,209);stop-opacity:1"
     id="stop3285" /></linearGradient>
        <linearGradient
   id="_Linear11"
   x1="0"
   y1="0"
   x2="1"
   y2="0"
   gradientUnits="userSpaceOnUse"
   gradientTransform="matrix(1,0,0,-1,0,0.00288981)"><stop
     offset="0"
     style="stop-color:rgb(200,226,255);stop-opacity:1"
     id="stop3288" /><stop
     offset="1"
     style="stop-color:rgb(107,153,209);stop-opacity:1"
     id="stop3290" /></linearGradient>
        <linearGradient
   id="_Linear12"
   x1="0"
   y1="0"
   x2="1"
   y2="0"
   gradientUnits="userSpaceOnUse"
   gradientTransform="matrix(1,0,0,-1,0,-8.4475e-5)"><stop
     offset="0"
     style="stop-color:rgb(200,226,255);stop-opacity:1"
     id="stop3293" /><stop
     offset="1"
     style="stop-color:rgb(107,153,209);stop-opacity:1"
     id="stop3295" /></linearGradient>
        <linearGradient
   id="_Linear13"
   x1="0"
   y1="0"
   x2="1"
   y2="0"
   gradientUnits="userSpaceOnUse"
   gradientTransform="matrix(1,-9.74877e-5,-9.74877e-5,-1,0,1.00733e-4)"><stop
     offset="0"
     style="stop-color:rgb(200,226,255);stop-opacity:1"
     id="stop3298" /><stop
     offset="1"
     style="stop-color:rgb(107,153,209);stop-opacity:1"
     id="stop3300" /></linearGradient>
        <linearGradient
   id="_Linear14"
   x1="0"
   y1="0"
   x2="1"
   y2="0"
   gradientUnits="userSpaceOnUse"
   gradientTransform="matrix(1,0,0,-1,0,0.00294892)"><stop
     offset="0"
     style="stop-color:rgb(200,226,255);stop-opacity:1"
     id="stop3303" /><stop
     offset="1"
     style="stop-color:rgb(107,153,209);stop-opacity:1"
     id="stop3305" /></linearGradient>
        <linearGradient
   id="_Linear15"
   x1="0"
   y1="0"
   x2="1"
   y2="0"
   gradientUnits="userSpaceOnUse"
   gradientTransform="matrix(1,0,0,-1,0,6.00584e-5)"><stop
     offset="0"
     style="stop-color:rgb(200,226,255);stop-opacity:1"
     id="stop3308" /><stop
     offset="1"
     style="stop-color:rgb(107,153,209);stop-opacity:1"
     id="stop3310" /></linearGradient>
        <linearGradient
   id="_Linear16"
   x1="0"
   y1="0"
   x2="1"
   y2="0"
   gradientUnits="userSpaceOnUse"
   gradientTransform="matrix(4.10709e-8,1,1,-4.10709e-8,0.457019,-0.457019)"><stop
     offset="0"
     style="stop-color:rgb(107,153,209);stop-opacity:1"
     id="stop3313" /><stop
     offset="1"
     style="stop-color:rgb(200,226,255);stop-opacity:1"
     id="stop3315" /></linearGradient>
        <linearGradient
   id="_Linear17"
   x1="0"
   y1="0"
   x2="1"
   y2="0"
   gradientUnits="userSpaceOnUse"
   gradientTransform="matrix(-1,4.10719e-8,4.10719e-8,1,1.82504,-3.74788e-8)"><stop
     offset="0"
     style="stop-color:rgb(107,153,209);stop-opacity:1"
     id="stop3318" /><stop
     offset="1"
     style="stop-color:rgb(200,226,255);stop-opacity:1"
     id="stop3320" /></linearGradient>
        <linearGradient
   id="_Linear18"
   x1="0"
   y1="0"
   x2="1"
   y2="0"
   gradientUnits="userSpaceOnUse"
   gradientTransform="matrix(1,0,0,-1,0,-9.82444e-5)"><stop
     offset="0"
     style="stop-color:rgb(107,153,209);stop-opacity:1"
     id="stop3323" /><stop
     offset="1"
     style="stop-color:rgb(200,226,255);stop-opacity:1"
     id="stop3325" /></linearGradient>
        <linearGradient
   id="_Linear19"
   x1="0"
   y1="0"
   x2="1"
   y2="0"
   gradientUnits="userSpaceOnUse"
   gradientTransform="matrix(-1,4.65534e-8,4.65534e-8,1,1.80575,-4.20319e-8)"><stop
     offset="0"
     style="stop-color:rgb(107,153,209);stop-opacity:1"
     id="stop3328" /><stop
     offset="1"
     style="stop-color:rgb(200,226,255);stop-opacity:1"
     id="stop3330" /></linearGradient>
        <linearGradient
   id="_Linear20"
   x1="0"
   y1="0"
   x2="1"
   y2="0"
   gradientUnits="userSpaceOnUse"
   gradientTransform="matrix(1,0,0,-1,0,-2.48235e-5)"><stop
     offset="0"
     style="stop-color:rgb(107,153,209);stop-opacity:1"
     id="stop3333" /><stop
     offset="1"
     style="stop-color:rgb(200,226,255);stop-opacity:1"
     id="stop3335" /></linearGradient>
        <linearGradient
   id="_Linear21"
   x1="0"
   y1="0"
   x2="1"
   y2="0"
   gradientUnits="userSpaceOnUse"
   gradientTransform="matrix(-1,4.10708e-8,4.10708e-8,1,1.80804,-3.71288e-8)"><stop
     offset="0"
     style="stop-color:rgb(107,153,209);stop-opacity:1"
     id="stop3338" /><stop
     offset="1"
     style="stop-color:rgb(200,226,255);stop-opacity:1"
     id="stop3340" /></linearGradient>
        <linearGradient
   id="_Linear22"
   x1="0"
   y1="0"
   x2="1"
   y2="0"
   gradientUnits="userSpaceOnUse"
   gradientTransform="matrix(4.10735e-8,1,1,-4.10735e-8,0.455332,-0.455332)"><stop
     offset="0"
     style="stop-color:rgb(107,153,209);stop-opacity:1"
     id="stop3343" /><stop
     offset="1"
     style="stop-color:rgb(200,226,255);stop-opacity:1"
     id="stop3345" /></linearGradient>
        <linearGradient
   id="_Linear23"
   x1="0"
   y1="0"
   x2="1"
   y2="0"
   gradientUnits="userSpaceOnUse"
   gradientTransform="matrix(-1,4.10719e-8,4.10719e-8,1,1.8201,-3.73774e-8)"><stop
     offset="0"
     style="stop-color:rgb(107,153,209);stop-opacity:1"
     id="stop3348" /><stop
     offset="1"
     style="stop-color:rgb(200,226,255);stop-opacity:1"
     id="stop3350" /></linearGradient>
        <linearGradient
   id="_Linear24"
   x1="0"
   y1="0"
   x2="1"
   y2="0"
   gradientUnits="userSpaceOnUse"
   gradientTransform="matrix(1,0,0,-1,0,5.82695e-5)"><stop
     offset="0"
     style="stop-color:rgb(200,226,255);stop-opacity:1"
     id="stop3353" /><stop
     offset="1"
     style="stop-color:rgb(107,153,209);stop-opacity:1"
     id="stop3355" /></linearGradient>
        <linearGradient
   id="_Linear25"
   x1="0"
   y1="0"
   x2="1"
   y2="0"
   gradientUnits="userSpaceOnUse"
   gradientTransform="matrix(1,0,0,-1,0,-1.06292e-4)"><stop
     offset="0"
     style="stop-color:rgb(200,226,255);stop-opacity:1"
     id="stop3358" /><stop
     offset="1"
     style="stop-color:rgb(107,153,209);stop-opacity:1"
     id="stop3360" /></linearGradient>
        <linearGradient
   id="_Linear26"
   x1="0"
   y1="0"
   x2="1"
   y2="0"
   gradientUnits="userSpaceOnUse"
   gradientTransform="matrix(-1,4.45675e-8,4.45675e-8,1,0.17257,0)"><stop
     offset="0"
     style="stop-color:rgb(200,226,255);stop-opacity:1"
     id="stop3363" /><stop
     offset="1"
     style="stop-color:rgb(107,153,209);stop-opacity:1"
     id="stop3365" /></linearGradient>
        <linearGradient
   id="_Linear27"
   x1="0"
   y1="0"
   x2="1"
   y2="0"
   gradientUnits="userSpaceOnUse"
   gradientTransform="matrix(1,0,0,-1,0,-9.406e-5)"><stop
     offset="0"
     style="stop-color:rgb(200,226,255);stop-opacity:1"
     id="stop3368" /><stop
     offset="1"
     style="stop-color:rgb(107,153,209);stop-opacity:1"
     id="stop3370" /></linearGradient>
        <linearGradient
   id="_Linear28"
   x1="0"
   y1="0"
   x2="1"
   y2="0"
   gradientUnits="userSpaceOnUse"
   gradientTransform="matrix(1,0,0,-1,0,1.73211e-5)"><stop
     offset="0"
     style="stop-color:rgb(200,226,255);stop-opacity:1"
     id="stop3373" /><stop
     offset="1"
     style="stop-color:rgb(107,153,209);stop-opacity:1"
     id="stop3375" /></linearGradient>
        <linearGradient
   id="_Linear29"
   x1="0"
   y1="0"
   x2="1"
   y2="0"
   gradientUnits="userSpaceOnUse"
   gradientTransform="matrix(-1,4.45676e-8,4.45676e-8,1,0.172605,0)"><stop
     offset="0"
     style="stop-color:rgb(200,226,255);stop-opacity:1"
     id="stop3378" /><stop
     offset="1"
     style="stop-color:rgb(107,153,209);stop-opacity:1"
     id="stop3380" /></linearGradient>
        <linearGradient
   id="_Linear30"
   x1="0"
   y1="0"
   x2="1"
   y2="0"
   gradientUnits="userSpaceOnUse"
   gradientTransform="matrix(1,0,0,-1,0,-2.35834e-5)"><stop
     offset="0"
     style="stop-color:rgb(200,226,255);stop-opacity:1"
     id="stop3383" /><stop
     offset="1"
     style="stop-color:rgb(107,153,209);stop-opacity:1"
     id="stop3385" /></linearGradient>
        <linearGradient
   id="_Linear31"
   x1="0"
   y1="0"
   x2="1"
   y2="0"
   gradientUnits="userSpaceOnUse"
   gradientTransform="matrix(1,0,0,-1,0,8.52283e-5)"><stop
     offset="0"
     style="stop-color:rgb(200,226,255);stop-opacity:1"
     id="stop3388" /><stop
     offset="1"
     style="stop-color:rgb(107,153,209);stop-opacity:1"
     id="stop3390" /></linearGradient>
        <linearGradient
   id="_Linear32"
   x1="0"
   y1="0"
   x2="1"
   y2="0"
   gradientUnits="userSpaceOnUse"
   gradientTransform="matrix(-1,4.45675e-8,4.45675e-8,1,0.17264,0)"><stop
     offset="0"
     style="stop-color:rgb(200,226,255);stop-opacity:1"
     id="stop3393" /><stop
     offset="1"
     style="stop-color:rgb(107,153,209);stop-opacity:1"
     id="stop3395" /></linearGradient>
        <linearGradient
   id="_Linear33"
   x1="0"
   y1="0"
   x2="1"
   y2="0"
   gradientUnits="userSpaceOnUse"
   gradientTransform="matrix(4.45669e-8,1,1,-4.45669e-8,0.518556,-0.518556)"><stop
     offset="0"
     style="stop-color:rgb(200,226,255);stop-opacity:1"
     id="stop3398" /><stop
     offset="1"
     style="stop-color:rgb(107,153,209);stop-opacity:1"
     id="stop3400" /></linearGradient>
        <linearGradient
   id="_Linear34"
   x1="0"
   y1="0"
   x2="1"
   y2="0"
   gradientUnits="userSpaceOnUse"
   gradientTransform="matrix(1,0,0,-1,0,-6.4487e-5)"><stop
     offset="0"
     style="stop-color:rgb(200,226,255);stop-opacity:1"
     id="stop3403" /><stop
     offset="1"
     style="stop-color:rgb(107,153,209);stop-opacity:1"
     id="stop3405" /></linearGradient>
        <linearGradient
   id="_Linear35"
   x1="0"
   y1="0"
   x2="1"
   y2="0"
   gradientUnits="userSpaceOnUse"
   gradientTransform="matrix(-1,4.45675e-8,4.45675e-8,1,0.172617,0)"><stop
     offset="0"
     style="stop-color:rgb(200,226,255);stop-opacity:1"
     id="stop3408" /><stop
     offset="1"
     style="stop-color:rgb(107,153,209);stop-opacity:1"
     id="stop3410" /></linearGradient>
        <linearGradient
   id="_Linear36"
   x1="0"
   y1="0"
   x2="1"
   y2="0"
   gradientUnits="userSpaceOnUse"
   gradientTransform="matrix(1,0,0,-1,0,1.48708e-4)"><stop
     offset="0"
     style="stop-color:rgb(200,226,255);stop-opacity:1"
     id="stop3413" /><stop
     offset="1"
     style="stop-color:rgb(107,153,209);stop-opacity:1"
     id="stop3415" /></linearGradient>
        <linearGradient
   id="_Linear37"
   x1="0"
   y1="0"
   x2="1"
   y2="0"
   gradientUnits="userSpaceOnUse"
   gradientTransform="matrix(1,0,0,-1,0,1.67025e-4)"><stop
     offset="0"
     style="stop-color:rgb(200,226,255);stop-opacity:1"
     id="stop3418" /><stop
     offset="1"
     style="stop-color:rgb(107,153,209);stop-opacity:1"
     id="stop3420" /></linearGradient>
        <linearGradient
   id="_Linear38"
   x1="0"
   y1="0"
   x2="1"
   y2="0"
   gradientUnits="userSpaceOnUse"
   gradientTransform="matrix(1,0,0,-1,0,-1.06357e-5)"><stop
     offset="0"
     style="stop-color:rgb(200,226,255);stop-opacity:1"
     id="stop3423" /><stop
     offset="1"
     style="stop-color:rgb(107,153,209);stop-opacity:1"
     id="stop3425" /></linearGradient>
        <linearGradient
   id="_Linear39"
   x1="0"
   y1="0"
   x2="1"
   y2="0"
   gradientUnits="userSpaceOnUse"
   gradientTransform="matrix(1,0,0,-1,0,7.67092e-4)"><stop
     offset="0"
     style="stop-color:rgb(200,226,255);stop-opacity:1"
     id="stop3428" /><stop
     offset="1"
     style="stop-color:rgb(107,153,209);stop-opacity:1"
     id="stop3430" /></linearGradient>
    
        
        
        
        
        
        
        
        
        
        
        
        
        
        
        
        
        
        
        
        
        
        
        
        
        
        
        
        
        
        
        
        
        
        
        
        
        
        
        
        
        
        
        
        
        
        
        
        
        
        
        
        
        
        
        
        
        
        
        
        
        
        
        
        
        
        
        
        
        
        
        
        
        
        
        
        
        
        
        
        
        
        
        
        
        
        
        
        
        
        
        
        
        
        
        
        
        
        
        
        
        
        
        
        
        
        
        
        
        
        
        
        
        
        
        
        
        
        
        
        
        
        
        
        
        
        
        
        
        
        
        
        
        
        
        
        
        
        
        
        
        
        
        
        
        
        
        
        
        
        
        
        
        
        
        
        
        
        
        
        
        
        
        
        
        
        
        
        
        
        
        
        
        
        
        
        
        
        
        
        
        
        
        
        
        
        
        
        
        
        
        
        
        
        
        
        
        
        
        
        
        
        
        
        
        
        
        
        
        
        
        
        
        
        
        
        
        
        
        
        
        
        
        
        
        
        
        
        
        
        
        
        
        
        
        
        
        
        
        
        
        
        
        
        
        
        
        
        
        
        
        
        
        
        
        
        
        
        
        
        
        
        
        
        
        
        
        
        
        
        
        
        
        
        
        
        
        
        
        
        
        
        
        
        
        
        
        
        
        
        
        
        
        
        
        
        
        
        
        
        
        
        
        
        
        
        
        
        
        
        
        
        
        
        
        
        
        
        
        
        
        
        
        
        
        
        
        
        
        
        
        
        
        
        
        
        
        
        
        
        
        
        
        
        
        
        
        
        
        
        
        
        
        
        
        
        
        
        
        
        
        
        
        
        
        
        
        
        
        
        
        
        
        
        
        
        
        
        
        
        
        
        
        
        
        
        
        
        
        
        
        
        
        
        
        
        
        
        
        
        
        
        
        
        
        
        
        
        
        
        
        
        
        
        
        
        
        
        
        
        
        
        
        
        
        
        
        
        
        
        
        
        
        
        
        
        
        
        
        
        
        
        
        
        
        
        
        
        
        
        
        
        
        
        
        
        
        
        
        
        
        
        
        
        
        
        
        
        
        
        
        
        
        
        
        
        
        
        
        
        
        
        
        
        
        
        
        
        
        
        
        
        
        
        
        
        
        
        
        
        
        
        
        
        
        
        
        
        
        
        
        
        
        
        
        
        
        
        
        
        
        
        
        
        
        
        
        
        
        
        
        
        
        
        
        
        
        
        
        
        
        
        
        
        
        
        
        
        
        
        
        
        
        
        
        
        
        
        
        
        
        
        
        
        
        
        
        
        
        
        
        
        
        
        
        
        
        
        
        
        
        
        
        
        
        
        
        
        
        
        
        
        
        
        
        
        
        
        
        
        
        
        
        
        
        
        
        
        
        
        
        
        
        
        
        
        
        
        
        
        
        
        
        
        
        
        
        
        
        
        
        
        
        
        
        
        
        
        
        
        
        
        
        
        
        
        
        
        
        
        
        
        
        
        
        
        
        
        
        
        
        
        
        
        
        
        
        
        
        
        
        
        
        
        
        
        
        
        
        
        
        
        
        
        
        
        
        
        
        
        
        
        
        
        
        
        
        
        
        
        
        
        
        
        
        
        
        
        
        
        
        
        
        
        
        
        
        
        
        
        
        
        
        
        
        
        
        
    </defs>
</svg>